<svg viewBox="0 0 1080 1080" fill="none" xmlns="http://www.w3.org/2000/svg">      <defs>  <filter id="filter" x="-20%" y="-20%" width="140%" height="140%" filterUnits="objectBoundingBox" primitiveUnits="userSpaceOnUse" color-interpolation-filters="linearRGB">    <feMorphology operator="dilate" radius="20 20" in="SourceAlpha" result="morphology"/>    <feFlood flood-color="#ffffff" flood-opacity="1" result="flood"/>    <feComposite in="flood" in2="morphology" operator="in" result="composite"/>    <feMerge result="merge">          <feMergeNode in="composite" result="mergeNode"/>      <feMergeNode in="SourceGraphic" result="mergeNode1"/>      </feMerge>  </filter></defs>      <g id="notion-avatar" filter="url(#filter)">        <g id="notion-avatar-face" fill="#ffffff">      <!--?xml version="1.0" encoding="UTF-8"?-->    <!-- Generator: Sketch 63.1 (92452) - https://sketch.com -->    <title>Face/ 13</title>    <desc>Created with Sketch.</desc>    <g id="Face/-13" stroke="none" stroke-width="1" fill-rule="evenodd" stroke-linecap="round" stroke-linejoin="round">        <path d="M532,379 C664.54834,379 772,486.45166 772,619 C772,642.160109 793.234546,666.244677 787.453024,688.979248 C773.583554,743.517917 772,919 608,919 C448.628533,919 373.476049,816.010833 320.189513,718.584987 C317.498129,718.859681 314.765451,719 312,719 C267.81722,719 232,683.18278 232,639 C232,599.134956 261.158843,566.080325 299.312086,560.00055 C325.599297,455.979213 419.809919,379 532,379 Z M295.858895,624.545187 L304.141105,655.454813" id="Path" stroke="#000000" stroke-width="24"/>    </g>    </g><g id="notion-avatar-nose">      <!--?xml version="1.0" encoding="UTF-8"?-->    <title>Nose/ 6</title>    <g id="Nose/-6" stroke="none" stroke-width="1" fill="none" fill-rule="evenodd" stroke-linecap="round" stroke-linejoin="round">        <path d="M673,568 C662.55102,590.836147 657.326531,613.414126 657.326531,635.733939 C657.326531,669.213657 685.938776,657.439501 683,683 C681.040816,700.040333 661.707483,708.388498 625,708.044495" id="Path" stroke="#000000" stroke-width="16"/>    </g>    </g><g id="notion-avatar-mouth">      <g id="Mouth/ 17"><g id="Group"><path id="Path" fill-rule="evenodd" clip-rule="evenodd" d="M696 748.043C696 748.043 652.693 751.692 624.619 750.391C596.544 749.09 544 741 544 741C544 741 567.514 813 621.26 813C650.652 813 664.489 801.44 679.204 779.348C685.215 770.324 696 748.043 696 748.043Z" stroke="black" stroke-width="12" stroke-linecap="round" stroke-linejoin="round"/><path id="Path_2" d="M708 745.444C708 745.444 660.212 753.222 622.485 750.111C584.758 747 542 740 542 740" stroke="black" stroke-width="12" stroke-linecap="round" stroke-linejoin="round"/><path id="Path_3" d="M537 745C537 745 539.438 740.385 542.688 738.077C545.938 735.769 550 735 550 735" stroke="black" stroke-width="12" stroke-linecap="round" stroke-linejoin="round"/><path id="Path_4" d="M569 788C569 788 588.349 777 625.365 777C662.381 777 675 786.429 675 786.429" stroke="black" stroke-width="12" stroke-linecap="round" stroke-linejoin="round"/></g></g>    </g><g id="notion-avatar-eyes">      <!--?xml version="1.0" encoding="UTF-8"?-->    <title>Eyes/ 9</title>    <g id="Eyes/-9" stroke="none" stroke-width="1" fill="none" fill-rule="evenodd">        <path d="M570,507 C575.854822,507 581.122051,511.025253 584.779642,517.440484 L578,531 L589.369946,531.000208 C589.781247,533.557105 590,536.237678 590,539 C590,556.673112 581.045695,571 570,571 C558.954305,571 550,556.673112 550,539 C550,521.326888 558.954305,507 570,507 Z M708,507 C713.854822,507 719.122051,511.025253 722.779642,517.440484 L716,531 L727.369946,531.000208 C727.781247,533.557105 728,536.237678 728,539 C728,556.673112 719.045695,571 708,571 C696.954305,571 688,556.673112 688,539 C688,521.326888 696.954305,507 708,507 Z" id="Combined-Shape" fill="#000000"/>    </g>    </g><g id="notion-avatar-eyebrows">      <!--?xml version="1.0" encoding="UTF-8"?-->    <title>Eyebrows/ 0</title>    <g id="Eyebrows/-0" stroke="none" stroke-width="1" fill="none" fill-rule="evenodd" stroke-linecap="round" stroke-linejoin="round">        <g id="Group" transform="translate(525.000000, 492.000000)" stroke="#000000" stroke-width="16">            <path d="M0,16 C12.8888889,5.33333333 27.8888889,0 45,0 C62.1111111,0 77.1111111,5.33333333 90,16" id="Path"/>            <path d="M138,16 C150.888889,5.33333333 165.888889,0 183,0 C200.111111,0 215.111111,5.33333333 228,16" id="Path"/>        </g>    </g>    </g><g id="notion-avatar-glasses">      <!--?xml version="1.0" encoding="UTF-8"?-->    <title>Glasses/ 8</title>    <g id="Glasses/-8" stroke="none" stroke-width="1" fill="none" fill-rule="evenodd" stroke-linecap="round" stroke-linejoin="round">        <g id="Group" transform="translate(293.000000, 475.000000)" stroke="#000000">            <path d="M328.31869,48.9411765 C333.965749,25.4117647 327.377514,0 252.083396,0 C176.789279,0 173.024573,30.1176471 170.201043,48.9411765 C167.377514,67.7647059 157.024573,140.235294 227.612808,143.058824 C298.201043,145.882353 322.671631,72.4705882 328.31869,48.9411765 Z" id="Path" stroke-width="8" fill="#0C0C0C"/>            <path d="M523.46091,48.9411765 C529.107969,25.4117647 522.519734,3.63797881e-12 447.225616,3.63797881e-12 C371.931498,3.63797881e-12 368.166792,30.1176471 365.343263,48.9411765 C362.519734,67.7647059 352.166792,140.235294 422.755028,143.058824 C493.343263,145.882353 517.813851,72.4705882 523.46091,48.9411765 Z" id="Path" stroke-width="8" fill="#0C0C0C" transform="translate(444.072807, 71.569037) scale(-1, 1) translate(-444.072807, -71.569037) "/>            <line x1="301.965749" y1="7.52941176" x2="391.377514" y2="7.52941176" id="Path" stroke-width="8"/>            <path d="M301.965749,35.7647059 C317.212807,34.5098039 332.271631,33.8823529 347.14222,33.8823529 C362.012808,33.8823529 376.757907,34.5098039 391.377514,35.7647059" id="Path" stroke-width="8"/>            <line x1="217" y1="40" x2="1.3111035" y2="83.3393577" id="Path" stroke-width="16" transform="translate(109.155552, 61.669679) rotate(1.361411) translate(-109.155552, -61.669679) "/>        </g>    </g>    </g><g id="notion-avatar-hair">      <g id="Hairstyle/ 39"><path id="Path" fill-rule="evenodd" clip-rule="evenodd" d="M499 255C530.508 267.472 565.59 277.322 605.268 288.553C644.946 299.784 671.888 320.97 700 348C752 398 746.942 484.288 739 493C737.601 494.535 721.325 463.054 700 444L698.615 442.77C675.806 422.637 644.02 400.454 642 402C619.677 419.084 627.675 420.273 595 427C561 434 549.626 424.652 503 416C450.977 410.003 417.977 416.003 404 434C380.296 464.522 392.365 499.147 392.365 516.739C392.365 528.233 383.924 572.725 367.044 650.214L366 655L328.117 564.825H287.146C271.78 507.747 268.106 468.653 276.123 447.542L276.87 445.586L277.655 443.563C279.549 438.724 287.997 432.536 303 425L302.938 423.117C302.412 405.678 303.388 392.143 305.866 382.512L306 382C309.047 370.574 322.517 329.262 388.884 302.935L366.282 283.125C365.857 282.752 365.429 282.376 365 282L366.925 281.942C392.744 281.204 411.769 282.556 424 286C427.172 286.893 430.481 288.094 433.927 289.603C437.049 288.94 440.248 288.307 443.525 287.705L415.064 260.61L418.214 260.777C447.35 262.359 469.109 264.729 483.49 267.887L484 268C493.813 270.195 506.255 274.141 521.325 279.838C525.184 279.731 528.95 279.679 532.631 279.678L499 255Z" fill="black" stroke="black" stroke-width="12" stroke-linecap="round" stroke-linejoin="round"/></g>    </g><g id="notion-avatar-accessories">      <!--?xml version="1.0" encoding="UTF-8"?-->    <title>Accessories/ 0</title>    <g id="Accessories/-0" stroke="none" stroke-width="1" fill="none" fill-rule="evenodd"/>    </g><g id="notion-avatar-details">      <!--?xml version="1.0" encoding="UTF-8"?-->    <title>Details/ 0</title>    <g id="Details/-0" stroke="none" stroke-width="1" fill="none" fill-rule="evenodd"/>    </g><g id="notion-avatar-beard">      <!--?xml version="1.0" encoding="UTF-8"?-->    <title>Beard/ 0</title>    <g id="Beard/-0" stroke="none" stroke-width="1" fill="none" fill-rule="evenodd"/>    </g>      </g>      </svg>